<svg width="28" height="28" viewBox="0 0 28 28" fill="none" xmlns="http://www.w3.org/2000/svg">
<g clip-path="url(#clip0_1_530)">
<path d="M23.7948 12.6045C23.3022 12.6045 22.8395 12.6866 22.4067 12.8582V5.58955H15.153C15.3097 5.15672 15.3918 4.6791 15.3918 4.18657C15.3918 1.87313 13.5186 0 11.2052 0C8.89177 0 7.01863 1.87313 7.01863 4.18657C7.01863 4.6791 7.10072 5.14925 7.25744 5.58955H0.0111694V13.7015C0.749975 13.0299 1.73505 12.6119 2.80968 12.6119C5.12311 12.6119 6.99624 14.4851 6.99624 16.7985C6.99624 19.1119 5.12311 20.9851 2.80968 20.9851C1.73505 20.9851 0.749975 20.5672 0.0111694 19.8955V28H22.4142V20.7313C22.847 20.8955 23.3097 20.9851 23.8022 20.9851C26.1231 20.9851 27.9888 19.1119 27.9888 16.7985C27.9888 14.4851 26.1231 12.6045 23.7948 12.6045Z" fill="#BFBFBF"/>
</g>
<defs>
<clipPath id="clip0_1_530">
<rect width="28" height="28" fill="white"/>
</clipPath>
</defs>
</svg>
