<svg width="29" height="18" viewBox="0 0 29 18" fill="none" xmlns="http://www.w3.org/2000/svg">
<path d="M22.5 18H1.50001C0.671548 18 0 17.3284 0 16.5C0 15.6716 0.671548 15 1.50001 15H22.5C23.3285 15 24.0001 15.6716 24.0001 16.5C24 17.3284 23.3285 18 22.5 18Z" fill="black"/>
<path d="M27.5 10.5H6.50001C5.67155 10.5 5 9.82848 5 9.00007C5 8.17166 5.67155 7.50006 6.50001 7.50006H27.5C28.3285 7.50006 29.0001 8.17161 29.0001 9.00007C29.0001 9.82853 28.3285 10.5 27.5 10.5Z" fill="black"/>
<path d="M22.5 3.00002H1.50001C0.671548 3.00002 0 2.32847 0 1.50001C0 0.671548 0.671548 0 1.50001 0H22.5C23.3285 0 24.0001 0.671548 24.0001 1.50001C24.0001 2.32847 23.3285 3.00002 22.5 3.00002Z" fill="black"/>
</svg>
