<svg width="69" height="69" viewBox="0 0 69 69" fill="none" xmlns="http://www.w3.org/2000/svg">
<rect x="0.5" y="0.5" width="68" height="68" rx="14.5" stroke="#DCD7E8"/>
<path d="M46.25 21.75H44.5V18.25C44.5 17.7859 44.3156 17.3408 43.9874 17.0126C43.6593 16.6844 43.2141 16.5 42.75 16.5C42.2859 16.5 41.8407 16.6844 41.5126 17.0126C41.1844 17.3408 41 17.7859 41 18.25V21.75H27V18.25C27 17.7859 26.8156 17.3408 26.4874 17.0126C26.1592 16.6844 25.7141 16.5 25.25 16.5C24.7859 16.5 24.3408 16.6844 24.0126 17.0126C23.6844 17.3408 23.5 17.7859 23.5 18.25V21.75H21.75C20.3576 21.75 19.0223 22.3031 18.0377 23.2877C17.0531 24.2723 16.5 25.6076 16.5 27V28.75H51.5V27C51.5 25.6076 50.9469 24.2723 49.9623 23.2877C48.9777 22.3031 47.6424 21.75 46.25 21.75Z" fill="white"/>
<path d="M16.5 46.25C16.5 47.6424 17.0531 48.9777 18.0377 49.9623C19.0223 50.9469 20.3576 51.5 21.75 51.5H46.25C47.6424 51.5 48.9777 50.9469 49.9623 49.9623C50.9469 48.9777 51.5 47.6424 51.5 46.25V32.25H16.5V46.25Z" fill="white"/>
</svg>
