<svg width="69" height="69" viewBox="0 0 69 69" fill="none" xmlns="http://www.w3.org/2000/svg">
<rect x="0.5" y="0.5" width="68" height="68" rx="14.5" stroke="#DCD7E8"/>
<path d="M53.614 22.3699C53.443 21.2266 52.8679 20.1823 51.9932 19.4265C51.1184 18.6707 50.0018 18.2533 48.8457 18.25H19.1543C17.9982 18.2533 16.8816 18.6707 16.0068 19.4265C15.132 20.1823 14.557 21.2266 14.386 22.3699L34 35.0618L53.614 22.3699Z" fill="white"/>
<path d="M34.7127 37.7274C34.5003 37.8647 34.2529 37.9378 34 37.9378C33.7471 37.9378 33.4997 37.8647 33.2873 37.7274L14.3125 25.4503V44.9081C14.3139 46.1918 14.8245 47.4225 15.7322 48.3302C16.6399 49.238 17.8706 49.7485 19.1543 49.7499H48.8457C50.1294 49.7485 51.3601 49.238 52.2678 48.3302C53.1755 47.4225 53.6861 46.1918 53.6875 44.9081V25.449L34.7127 37.7274Z" fill="white"/>
</svg>
