<svg width="69" height="69" viewBox="0 0 69 69" fill="none" xmlns="http://www.w3.org/2000/svg">
<rect x="0.5" y="0.5" width="68" height="68" rx="14.5" stroke="#DCD7E8"/>
<path d="M51.4998 23.4995H48.0002V51.4999H51.4998C53.4245 51.4999 55 49.9238 55 47.9992V26.9992C55 25.075 53.4245 23.4995 51.4998 23.4995Z" fill="white"/>
<path d="M40.9998 23.4995V19.9998C40.9998 18.0751 39.4243 16.4996 37.5001 16.4996H30.4998C28.5756 16.4996 27.0001 18.0751 27.0001 19.9998V23.4995H23.5V51.4998H44.5V23.4995H40.9998ZM37.5001 23.4995H30.4998V19.9993H37.5001V23.4995Z" fill="white"/>
<path d="M16.5002 23.4995C14.5755 23.4995 13 25.075 13 26.9997V47.9997C13 49.9243 14.5755 51.5004 16.5002 51.5004H19.9998V23.4995H16.5002Z" fill="white"/>
</svg>
