<svg width="69" height="69" viewBox="0 0 69 69" fill="none" xmlns="http://www.w3.org/2000/svg">
<rect x="0.499969" y="0.5" width="68" height="68" rx="14.5" stroke="#DCD7E8"/>
<g clip-path="url(#clip0_1_471)">
<path fill-rule="evenodd" clip-rule="evenodd" d="M28.1811 35.0083C28.065 34.9063 27.7968 34.6695 27.7015 34.5799C25.3755 32.3941 23.8517 28.9712 23.8517 25.1138C23.8517 18.3781 28.4868 13.041 34.001 13.041C39.5152 13.041 44.1503 18.3781 44.1503 25.1138C44.1503 28.9679 42.6292 32.3884 40.3094 34.5778C40.2118 34.6699 39.9384 34.9116 39.8238 35.0125L39.8139 35.1799C39.8789 36.1847 40.554 37.0553 41.5232 37.3626C48.7277 39.641 53.9507 45.0853 54.8276 51.538C54.9483 52.3988 54.6902 53.2696 54.1198 53.9254C53.5495 54.5813 52.723 54.9579 51.8541 54.9579C45.4956 54.9591 22.5067 54.9591 16.1482 54.9591C15.2787 54.9591 14.4518 54.5824 13.8812 53.9263C13.3107 53.2701 13.0524 52.3989 13.1723 51.5437C14.0515 45.0851 19.2744 39.641 26.4777 37.3628C27.4504 37.0544 28.1263 36.1802 28.1885 35.1722L28.1811 35.0083Z" fill="white"/>
</g>
<defs>
<clipPath id="clip0_1_471">
<rect width="42" height="42" fill="white" transform="translate(13 13)"/>
</clipPath>
</defs>
</svg>
