<svg width="24" height="24" viewBox="0 0 24 24" fill="none" xmlns="http://www.w3.org/2000/svg">
<path d="M3 6H14C14 6.53043 14.2107 7.03914 14.5858 7.41421C14.9609 7.78929 15.4696 8 16 8H18C18.5304 8 19.0391 7.78929 19.4142 7.41421C19.7893 7.03914 20 6.53043 20 6H21C21.2652 6 21.5196 5.89464 21.7071 5.70711C21.8946 5.51957 22 5.26522 22 5C22 4.73478 21.8946 4.48043 21.7071 4.29289C21.5196 4.10536 21.2652 4 21 4H20C20 3.46957 19.7893 2.96086 19.4142 2.58579C19.0391 2.21071 18.5304 2 18 2H16C15.4696 2 14.9609 2.21071 14.5858 2.58579C14.2107 2.96086 14 3.46957 14 4H3C2.73478 4 2.48043 4.10536 2.29289 4.29289C2.10536 4.48043 2 4.73478 2 5C2 5.26522 2.10536 5.51957 2.29289 5.70711C2.48043 5.89464 2.73478 6 3 6ZM16 4H18V5V6H16V4ZM21 11H12C12 10.4696 11.7893 9.96086 11.4142 9.58579C11.0391 9.21071 10.5304 9 10 9H8C7.46957 9 6.96086 9.21071 6.58579 9.58579C6.21071 9.96086 6 10.4696 6 11H3C2.73478 11 2.48043 11.1054 2.29289 11.2929C2.10536 11.4804 2 11.7348 2 12C2 12.2652 2.10536 12.5196 2.29289 12.7071C2.48043 12.8946 2.73478 13 3 13H6C6 13.5304 6.21071 14.0391 6.58579 14.4142C6.96086 14.7893 7.46957 15 8 15H10C10.5304 15 11.0391 14.7893 11.4142 14.4142C11.7893 14.0391 12 13.5304 12 13H21C21.2652 13 21.5196 12.8946 21.7071 12.7071C21.8946 12.5196 22 12.2652 22 12C22 11.7348 21.8946 11.4804 21.7071 11.2929C21.5196 11.1054 21.2652 11 21 11ZM8 13V11H10V12V13H8ZM21 18H18C18 17.4696 17.7893 16.9609 17.4142 16.5858C17.0391 16.2107 16.5304 16 16 16H14C13.4696 16 12.9609 16.2107 12.5858 16.5858C12.2107 16.9609 12 17.4696 12 18H3C2.73478 18 2.48043 18.1054 2.29289 18.2929C2.10536 18.4804 2 18.7348 2 19C2 19.2652 2.10536 19.5196 2.29289 19.7071C2.48043 19.8946 2.73478 20 3 20H12C12 20.5304 12.2107 21.0391 12.5858 21.4142C12.9609 21.7893 13.4696 22 14 22H16C16.5304 22 17.0391 21.7893 17.4142 21.4142C17.7893 21.0391 18 20.5304 18 20H21C21.2652 20 21.5196 19.8946 21.7071 19.7071C21.8946 19.5196 22 19.2652 22 19C22 18.7348 21.8946 18.4804 21.7071 18.2929C21.5196 18.1054 21.2652 18 21 18ZM14 20V18H16V19V20H14Z" fill="#40189D"/>
</svg>
