<svg width="24" height="24" viewBox="0 0 24 24" fill="none" xmlns="http://www.w3.org/2000/svg">
<g clip-path="url(#clip0_1_396)">
<path d="M13.0606 23.5607L18.3752 18.2461C18.6681 17.9532 18.8145 17.5693 18.8145 17.1854C18.8145 16.8015 18.6681 16.4176 18.3752 16.1247C17.7894 15.539 16.8396 15.539 16.2539 16.1247L13.4999 18.8787L13.4999 1.5C13.4999 0.671578 12.8284 3.34086e-07 11.9999 2.97875e-07C11.1715 2.61663e-07 10.4999 0.671578 10.4999 1.5L10.4999 18.8787L7.74604 16.1247C7.16024 15.539 6.21051 15.539 5.62471 16.1247C5.03891 16.7106 5.03891 17.6602 5.62471 18.2461L10.9393 23.5607C11.5251 24.1464 12.4748 24.1464 13.0606 23.5607Z" fill="black"/>
</g>
<defs>
<clipPath id="clip0_1_396">
<rect width="24" height="24" fill="white" transform="matrix(-4.37114e-08 1 1 4.37114e-08 0 0)"/>
</clipPath>
</defs>
</svg>
