<svg width="28" height="28" viewBox="0 0 28 28" fill="none" xmlns="http://www.w3.org/2000/svg">
<path d="M25.2753 11.9611L16.3242 4.00585C15.6836 3.43661 14.8564 3.12219 13.9994 3.12219C13.1424 3.12219 12.3152 3.43661 11.6746 4.00585L2.72459 11.9611C2.54823 12.1185 2.4238 12.3258 2.36776 12.5555C2.31172 12.7851 2.3267 13.0264 2.41073 13.2473C2.49476 13.4683 2.64388 13.6586 2.83837 13.793C3.03286 13.9273 3.26356 13.9995 3.49996 14H5.83329V22.1667C5.83431 23.0946 6.20339 23.9842 6.85954 24.6404C7.5157 25.2966 8.40535 25.6656 9.33329 25.6667H10.5V18.6667C10.5 14.042 17.5 14.0399 17.5 18.6667V25.6667H18.6666C19.5946 25.6656 20.4842 25.2966 21.1404 24.6404C21.7965 23.9842 22.1656 23.0946 22.1666 22.1667V14H24.5C24.7364 13.9995 24.9671 13.9273 25.1615 13.793C25.356 13.6586 25.5052 13.4683 25.5892 13.2473C25.6732 13.0264 25.6882 12.7851 25.6322 12.5555C25.5761 12.3258 25.4517 12.1185 25.2753 11.9611Z" fill="#40189D"/>
</svg>
