<svg width="24" height="24" viewBox="0 0 24 24" fill="none" xmlns="http://www.w3.org/2000/svg">
<path d="M12 0C6.93398 0 2.8125 4.12148 2.8125 9.1875C2.8125 10.8091 3.24094 12.4034 4.05145 13.7979C4.24041 14.123 4.45162 14.4398 4.67934 14.7396L11.6008 24H12.3991L19.3207 14.7397C19.5483 14.4398 19.7595 14.1231 19.9485 13.7979C20.7591 12.4034 21.1875 10.8091 21.1875 9.1875C21.1875 4.12148 17.066 0 12 0ZM12 12.2344C10.32 12.2344 8.95312 10.8675 8.95312 9.1875C8.95312 7.50745 10.32 6.14062 12 6.14062C13.68 6.14062 15.0469 7.50745 15.0469 9.1875C15.0469 10.8675 13.68 12.2344 12 12.2344Z" fill="#40189D"/>
</svg>
