<svg width="189" height="66" viewBox="0 0 189 66" fill="none" xmlns="http://www.w3.org/2000/svg">
<path d="M91.216 36.606H98.36C98.36 36.682 98.322 36.872 98.246 37.176C98.1953 37.4547 98.132 37.7967 98.056 38.202C97.98 38.6073 97.904 39.0507 97.828 39.532C97.7773 40.0133 97.752 40.4567 97.752 40.862C97.752 41.1153 97.7773 41.3813 97.828 41.66C97.8787 41.9387 97.9673 42.2047 98.094 42.458C98.2207 42.686 98.398 42.8887 98.626 43.066C98.8793 43.218 99.1833 43.294 99.538 43.294C100.197 43.294 100.716 43.028 101.096 42.496C101.501 41.9387 101.856 40.938 102.16 39.494L105.998 21.406H114.244L110.52 38.848C110.191 40.3427 109.621 41.5587 108.81 42.496C107.999 43.408 107.062 44.1173 105.998 44.624C104.959 45.1307 103.845 45.46 102.654 45.612C101.463 45.7893 100.323 45.878 99.234 45.878C97.9673 45.878 96.878 45.7893 95.966 45.612C95.054 45.46 94.2433 45.232 93.534 44.928C92.85 44.624 92.2293 44.2567 91.672 43.826C91.1147 43.37 90.5573 42.876 90 42.344L91.216 36.606Z" fill="white"/>
<path d="M124.883 28.778C127.897 28.778 130.089 29.31 131.457 30.374C132.901 31.4887 133.623 33.338 133.623 35.922C133.623 37.518 133.357 38.962 132.825 40.254C132.293 41.5207 131.545 42.572 130.583 43.408C128.657 45.0293 125.871 45.84 122.223 45.84C119.107 45.84 116.877 45.2447 115.535 44.054C114.091 42.8127 113.369 40.9507 113.369 38.468C113.369 36.8213 113.698 35.3267 114.357 33.984C115.041 32.6413 116.016 31.5267 117.283 30.64C119.132 29.3987 121.665 28.778 124.883 28.778ZM122.299 43.256C122.932 43.256 123.477 42.9013 123.933 42.192C124.414 41.4827 124.794 40.6213 125.073 39.608C125.351 38.5693 125.554 37.5053 125.681 36.416C125.833 35.3013 125.909 34.3387 125.909 33.528C125.909 32.8187 125.833 32.2867 125.681 31.932C125.554 31.552 125.263 31.362 124.807 31.362C124.123 31.362 123.527 31.7293 123.021 32.464C122.539 33.1987 122.147 34.0727 121.843 35.086C121.539 36.0993 121.311 37.138 121.159 38.202C121.032 39.266 120.969 40.1273 120.969 40.786C120.969 42.4327 121.412 43.256 122.299 43.256Z" fill="white"/>
<path d="M140.546 45.536H134.39L139.786 20H147.576L145.106 31.628H145.372C146.208 30.6653 147.145 29.9813 148.184 29.576C149.248 29.1453 150.299 28.93 151.338 28.93C152.225 28.93 152.959 29.0693 153.542 29.348C154.15 29.6013 154.631 29.956 154.986 30.412C155.341 30.868 155.594 31.4127 155.746 32.046C155.898 32.6793 155.974 33.3507 155.974 34.06C155.974 34.4147 155.949 34.9467 155.898 35.656C155.847 36.3653 155.733 37.1633 155.556 38.05C155.379 38.9113 155.125 39.8107 154.796 40.748C154.467 41.66 154.023 42.496 153.466 43.256C152.934 44.016 152.25 44.6367 151.414 45.118C150.603 45.5993 149.628 45.84 148.488 45.84C147.804 45.84 147.133 45.764 146.474 45.612C145.841 45.46 145.258 45.2573 144.726 45.004C144.219 44.7507 143.763 44.4593 143.358 44.13C142.978 43.7753 142.699 43.4207 142.522 43.066H142.256L140.546 45.536ZM144.84 42.154C145.448 42.154 145.955 41.8373 146.36 41.204C146.765 40.5453 147.095 39.7853 147.348 38.924C147.601 38.0373 147.779 37.1633 147.88 36.302C148.007 35.4153 148.07 34.7567 148.07 34.326C148.07 33.8193 147.981 33.4013 147.804 33.072C147.652 32.7427 147.361 32.578 146.93 32.578C146.423 32.578 145.955 32.768 145.524 33.148C145.093 33.5027 144.777 33.8067 144.574 34.06L143.092 40.862C143.269 41.166 143.497 41.4573 143.776 41.736C144.08 42.0147 144.435 42.154 144.84 42.154Z" fill="white"/>
<path d="M164.332 45.536H156.618L160.076 29.196H167.866L164.332 45.536ZM168.854 24.218C168.854 24.8007 168.728 25.3073 168.474 25.738C168.246 26.1687 167.93 26.536 167.524 26.84C167.144 27.144 166.701 27.372 166.194 27.524C165.688 27.676 165.168 27.752 164.636 27.752C163.623 27.752 162.774 27.5113 162.09 27.03C161.406 26.5487 161.064 25.7887 161.064 24.75C161.064 24.1927 161.178 23.6987 161.406 23.268C161.634 22.812 161.938 22.4447 162.318 22.166C162.724 21.862 163.18 21.634 163.686 21.482C164.218 21.33 164.763 21.254 165.32 21.254C166.308 21.254 167.144 21.4947 167.828 21.976C168.512 22.4573 168.854 23.2047 168.854 24.218Z" fill="white"/>
<path d="M176.415 37.898C176.314 38.4553 176.238 38.9873 176.187 39.494C176.162 40.0007 176.149 40.4567 176.149 40.862C176.149 41.09 176.162 41.3433 176.187 41.622C176.213 41.9007 176.263 42.1667 176.339 42.42C176.441 42.648 176.567 42.8507 176.719 43.028C176.897 43.18 177.137 43.256 177.441 43.256C177.669 43.256 177.923 43.18 178.201 43.028C178.505 42.876 178.797 42.6607 179.075 42.382C179.379 42.1033 179.658 41.7613 179.911 41.356C180.19 40.9507 180.405 40.4947 180.557 39.988H186.789L185.801 44.054C185.295 44.3833 184.712 44.662 184.053 44.89C183.395 45.118 182.698 45.308 181.963 45.46C181.229 45.5867 180.481 45.6753 179.721 45.726C178.961 45.802 178.239 45.84 177.555 45.84C176.289 45.84 175.111 45.726 174.021 45.498C172.932 45.27 171.982 44.8773 171.171 44.32C170.361 43.7627 169.715 43.028 169.233 42.116C168.777 41.1787 168.549 40.026 168.549 38.658C168.549 37.4167 168.739 36.2007 169.119 35.01C169.525 33.8193 170.183 32.768 171.095 31.856C172.033 30.9187 173.274 30.1713 174.819 29.614C176.39 29.0567 178.341 28.778 180.671 28.778C183.205 28.778 185.105 29.1707 186.371 29.956C187.663 30.7413 188.309 31.97 188.309 33.642C188.309 34.326 188.208 35.0733 188.005 35.884C187.803 36.6693 187.499 37.3407 187.093 37.898H176.415ZM181.469 33.376C181.469 32.5907 181.343 32.0587 181.089 31.78C180.836 31.5013 180.532 31.362 180.177 31.362C179.772 31.362 179.392 31.5013 179.037 31.78C178.708 32.0333 178.404 32.388 178.125 32.844C177.847 33.2747 177.593 33.7813 177.365 34.364C177.137 34.9213 176.947 35.5167 176.795 36.15H181.127C181.178 35.846 181.229 35.5293 181.279 35.2C181.33 34.9213 181.368 34.6173 181.393 34.288C181.444 33.9587 181.469 33.6547 181.469 33.376Z" fill="white"/>
<path d="M0 33C0 14.7746 14.7746 0 33 0C51.2254 0 66 14.7746 66 33C66 51.2254 51.2254 66 33 66C14.7746 66 0 51.2254 0 33Z" fill="white"/>
<mask id="mask0_1_568" style="mask-type:alpha" maskUnits="userSpaceOnUse" x="0" y="0" width="66" height="66">
<path d="M0 33C0 14.7746 14.7746 0 33 0C51.2254 0 66 14.7746 66 33C66 51.2254 51.2254 66 33 66C14.7746 66 0 51.2254 0 33Z" fill="white"/>
</mask>
<g mask="url(#mask0_1_568)">
<path d="M17.1813 30.7806H30.565C30.565 30.9239 30.4939 31.282 30.3515 31.855C30.2566 32.3803 30.1379 33.025 29.9955 33.789C29.8531 34.5531 29.7108 35.3887 29.5684 36.296C29.4735 37.2033 29.426 38.039 29.426 38.803C29.426 39.2806 29.4735 39.782 29.5684 40.3072C29.6633 40.8325 29.8294 41.3339 30.0667 41.8115C30.304 42.2412 30.6362 42.6232 31.0634 42.9575C31.538 43.244 32.1075 43.3873 32.7719 43.3873C34.0059 43.3873 34.9788 42.8859 35.6907 41.8831C36.4501 40.8325 37.1145 38.9463 37.6841 36.2244L44.8743 2.12903H60.3226L53.3459 35.0067C52.7289 37.8241 51.6611 40.1162 50.1424 41.8831C48.6236 43.6022 46.8676 44.9393 44.8743 45.8943C42.9284 46.8494 40.8402 47.4701 38.6095 47.7567C36.3789 48.0909 34.2432 48.2581 32.2024 48.2581C29.8294 48.2581 27.7886 48.0909 26.0801 47.7567C24.3715 47.4701 22.8528 47.0404 21.5239 46.4673C20.2425 45.8943 19.0797 45.2019 18.0356 44.3901C16.9914 43.5305 15.9473 42.5994 14.9032 41.5966L17.1813 30.7806Z" fill="#40189D"/>
</g>
</svg>
