<svg width="28" height="28" viewBox="0 0 28 28" fill="none" xmlns="http://www.w3.org/2000/svg">
<g clip-path="url(#clip0_1_549)">
<path d="M22.5678 26.5202C22.8079 26.5202 23.0448 26.6115 23.225 26.7856C24.3769 27.8979 26.0573 28.2683 27.551 27.8047C26.5897 25.802 26.4565 23.5075 27.2015 21.383C28.126 18.7398 28.3577 16.0905 27.3055 13.4334C26.3811 11.0992 24.5972 9.15994 22.3395 8.05408C22.4784 8.79455 22.5484 9.54903 22.5484 10.3115C22.5485 13.5478 21.304 16.5916 19.0444 18.8823C16.7846 21.1733 13.7554 22.4615 10.5148 22.5097C9.9127 22.5191 9.31334 22.4837 8.72076 22.4056C10.5017 25.5274 13.8606 27.5606 17.5516 27.6153C19.1663 27.6403 20.7166 27.302 22.1604 26.6125C22.2904 26.5503 22.4297 26.5202 22.5678 26.5202Z" fill="#BFBFBF"/>
<path d="M10.541 0.00236249C4.79225 -0.111786 0.0134653 4.53885 -0.000396074 10.2863C-0.00379211 11.6906 0.270317 13.052 0.814376 14.3331C0.822277 14.3517 0.829624 14.3706 0.836277 14.3897C1.58126 16.5142 1.44812 18.8086 0.486693 20.8114C1.9806 21.2748 3.66074 20.9046 4.81276 19.7922C5.09657 19.518 5.52122 19.449 5.87732 19.6192C7.32091 20.3087 8.87144 20.648 10.486 20.6221C16.1898 20.5374 20.6576 16.0085 20.6576 10.3117C20.6576 4.73921 16.1193 0.114501 10.541 0.00236249ZM4.819 11.8517C3.99307 11.8517 3.32349 11.1832 3.32349 10.3587C3.32349 9.53414 3.99307 8.86568 4.819 8.86568C5.64493 8.86568 6.3145 9.53414 6.3145 10.3587C6.31444 11.1832 5.64493 11.8517 4.819 11.8517ZM10.3286 11.8517C9.50269 11.8517 8.83312 11.1832 8.83312 10.3587C8.83312 9.53414 9.50269 8.86568 10.3286 8.86568C11.1546 8.86568 11.8241 9.53414 11.8241 10.3587C11.8241 11.1832 11.1546 11.8517 10.3286 11.8517ZM15.8383 11.8517C15.0124 11.8517 14.3428 11.1832 14.3428 10.3587C14.3428 9.53414 15.0124 8.86568 15.8383 8.86568C16.6642 8.86568 17.3338 9.53414 17.3338 10.3587C17.3338 11.1832 16.6642 11.8517 15.8383 11.8517Z" fill="#BFBFBF"/>
</g>
<defs>
<clipPath id="clip0_1_549">
<rect width="28" height="28" fill="white"/>
</clipPath>
</defs>
</svg>
