<svg width="69" height="67" viewBox="0 0 69 67" fill="none" xmlns="http://www.w3.org/2000/svg">
<rect y="11" width="56" height="56" rx="28" fill="white"/>
<g clip-path="url(#clip0_7_602)">
<path d="M36.5678 51.5202C36.8079 51.5202 37.0448 51.6115 37.225 51.7856C38.3769 52.8979 40.0573 53.2683 41.551 52.8047C40.5897 50.802 40.4565 48.5075 41.2015 46.383C42.126 43.7398 42.3577 41.0905 41.3055 38.4334C40.3811 36.0992 38.5972 34.1599 36.3395 33.0541C36.4784 33.7946 36.5484 34.549 36.5484 35.3115C36.5485 38.5478 35.304 41.5916 33.0444 43.8823C30.7846 46.1733 27.7554 47.4615 24.5148 47.5097C23.9127 47.5191 23.3133 47.4837 22.7208 47.4056C24.5017 50.5274 27.8606 52.5606 31.5516 52.6153C33.1663 52.6403 34.7166 52.302 36.1604 51.6125C36.2904 51.5503 36.4297 51.5202 36.5678 51.5202Z" fill="#3E4954"/>
<path d="M24.541 25.0024C18.7922 24.8882 14.0135 29.5388 13.9996 35.2863C13.9962 36.6906 14.2703 38.052 14.8144 39.3331C14.8223 39.3517 14.8296 39.3706 14.8363 39.3897C15.5813 41.5142 15.4481 43.8086 14.4867 45.8114C15.9806 46.2748 17.6607 45.9046 18.8128 44.7922C19.0966 44.518 19.5212 44.449 19.8773 44.6192C21.3209 45.3087 22.8714 45.648 24.486 45.6221C30.1898 45.5374 34.6576 41.0085 34.6576 35.3117C34.6576 29.7392 30.1193 25.1145 24.541 25.0024ZM18.819 36.8517C17.9931 36.8517 17.3235 36.1832 17.3235 35.3587C17.3235 34.5341 17.9931 33.8657 18.819 33.8657C19.6449 33.8657 20.3145 34.5341 20.3145 35.3587C20.3144 36.1832 19.6449 36.8517 18.819 36.8517ZM24.3286 36.8517C23.5027 36.8517 22.8331 36.1832 22.8331 35.3587C22.8331 34.5341 23.5027 33.8657 24.3286 33.8657C25.1546 33.8657 25.8241 34.5341 25.8241 35.3587C25.8241 36.1832 25.1546 36.8517 24.3286 36.8517ZM29.8383 36.8517C29.0124 36.8517 28.3428 36.1832 28.3428 35.3587C28.3428 34.5341 29.0124 33.8657 29.8383 33.8657C30.6642 33.8657 31.3338 34.5341 31.3338 35.3587C31.3338 36.1832 30.6642 36.8517 29.8383 36.8517Z" fill="#3E4954"/>
</g>
<g filter="url(#filter0_d_7_602)">
<circle cx="48" cy="15" r="13" fill="#40189D"/>
</g>
<path d="M42.862 20H44.878V9.794H41.504V11.6H42.862V20ZM48.5223 14.596C47.5143 15.016 46.8843 15.898 46.8843 17.102C46.8843 19.048 48.4803 20.224 50.5663 20.224C52.6663 20.224 54.2623 19.048 54.2623 17.102C54.2623 15.912 53.6323 15.03 52.6243 14.596C53.4223 14.19 54.0103 13.42 54.0103 12.342C54.0103 10.886 52.8903 9.598 50.5663 9.598C48.2423 9.598 47.1223 10.872 47.1223 12.342C47.1223 13.448 47.6823 14.162 48.5223 14.596ZM50.5663 14.022C49.6843 14.022 49.0403 13.476 49.0403 12.636C49.0403 11.684 49.6563 11.18 50.5663 11.18C51.5043 11.18 52.1063 11.698 52.1063 12.622C52.1063 13.462 51.4623 14.022 50.5663 14.022ZM50.5663 15.45C51.6163 15.45 52.3443 16.01 52.3443 17.018C52.3443 17.914 51.6863 18.6 50.5663 18.6C49.4463 18.6 48.7743 17.928 48.7743 17.018C48.7743 15.982 49.5443 15.45 50.5663 15.45Z" fill="white"/>
<defs>
<filter id="filter0_d_7_602" x="27" y="0" width="42" height="42" filterUnits="userSpaceOnUse" color-interpolation-filters="sRGB">
<feFlood flood-opacity="0" result="BackgroundImageFix"/>
<feColorMatrix in="SourceAlpha" type="matrix" values="0 0 0 0 0 0 0 0 0 0 0 0 0 0 0 0 0 0 127 0" result="hardAlpha"/>
<feOffset dy="6"/>
<feGaussianBlur stdDeviation="4"/>
<feColorMatrix type="matrix" values="0 0 0 0 0.529412 0 0 0 0 0.262745 0 0 0 0 0.87451 0 0 0 0.37 0"/>
<feBlend mode="normal" in2="BackgroundImageFix" result="effect1_dropShadow_7_602"/>
<feBlend mode="normal" in="SourceGraphic" in2="effect1_dropShadow_7_602" result="shape"/>
</filter>
<clipPath id="clip0_7_602">
<rect width="28" height="28" fill="white" transform="translate(14 25)"/>
</clipPath>
</defs>
</svg>
