<svg width="28" height="28" viewBox="0 0 28 28" fill="none" xmlns="http://www.w3.org/2000/svg">
<g clip-path="url(#clip0_1_544)">
<path d="M19.621 4.51614H3.54242C2.95871 4.51614 2.48395 4.9909 2.48395 5.57461V26.9415C2.48395 27.5253 2.95871 28 3.54242 28H19.621C20.2041 28 20.6789 27.5253 20.6789 26.9415V5.57461C20.6789 4.9909 20.2041 4.51614 19.621 4.51614ZM16.0323 19.4194H7.45169C6.95266 19.4194 6.54846 19.0152 6.54846 18.5161C6.54846 18.0171 6.95266 17.6129 7.45169 17.6129H16.0323C16.5314 17.6129 16.9356 18.0171 16.9356 18.5161C16.9356 19.0152 16.5314 19.4194 16.0323 19.4194ZM16.0323 15.8065H7.45169C6.95266 15.8065 6.54846 15.4023 6.54846 14.9032C6.54846 14.4042 6.95266 14 7.45169 14H16.0323C16.5314 14 16.9356 14.4042 16.9356 14.9032C16.9356 15.4023 16.5314 15.8065 16.0323 15.8065ZM16.0323 12.1936H7.45169C6.95266 12.1936 6.54846 11.7894 6.54846 11.2903C6.54846 10.7913 6.95266 10.3871 7.45169 10.3871H16.0323C16.5314 10.3871 16.9356 10.7913 16.9356 11.2903C16.9356 11.7894 16.5314 12.1936 16.0323 12.1936Z" fill="#BFBFBF"/>
<path d="M25.5161 2.70968V22.5806C25.5161 23.9445 24.4187 25.2903 22.4853 25.2903V5.5746C22.4853 3.99452 21.2004 2.70968 19.6209 2.70968H5.51477C5.51477 1.2154 6.80243 0 8.38477 0H22.6461C24.2285 0 25.5161 1.2154 25.5161 2.70968Z" fill="#BFBFBF"/>
</g>
<defs>
<clipPath id="clip0_1_544">
<rect width="28" height="28" fill="white"/>
</clipPath>
</defs>
</svg>
