<svg width="69" height="67" viewBox="0 0 69 67" fill="none" xmlns="http://www.w3.org/2000/svg">
<rect y="11" width="56" height="56" rx="28" fill="white"/>
<path d="M24.4525 50.6682C25.0606 52.0357 26.4091 53 28.0006 53C29.5922 53 30.9407 52.0357 31.5488 50.6682C30.4266 50.7231 29.2596 50.76 28.0006 50.76C26.7418 50.76 25.5748 50.7231 24.4525 50.6682Z" fill="#3E4954"/>
<path d="M40.3531 44.74C38.8769 42.8785 36.3995 39.2195 36.3995 35.64C36.3995 32.0907 34.1192 28.8976 30.7995 27.7238C30.7592 26.2141 29.5183 25 28.0006 25C26.4819 25 25.2421 26.2141 25.2017 27.7238C21.8809 28.8976 19.6006 32.0907 19.6006 35.64C19.6006 39.2207 17.1243 42.8785 15.6471 44.74C15.1543 45.3616 15.0019 46.1825 15.2405 46.9363C15.4735 47.6721 16.0536 48.2422 16.7928 48.4595C18.0875 48.8415 20.2099 49.2715 23.4468 49.491C24.8479 49.5851 26.3543 49.64 28.0007 49.64C29.646 49.64 31.1524 49.5851 32.5535 49.491C35.7914 49.2715 37.9127 48.8415 39.2085 48.4595C39.9477 48.2422 40.5268 47.6722 40.7597 46.9363C40.9983 46.1825 40.8448 45.3616 40.3531 44.74Z" fill="#3E4954"/>
<g filter="url(#filter0_d_1_502)">
<circle cx="48" cy="15" r="13" fill="#40189D"/>
</g>
<path d="M40.274 9.766V15.758H42.15C42.36 15.128 42.878 14.68 43.69 14.68C44.796 14.68 45.37 15.31 45.37 16.458C45.37 17.536 44.852 18.348 43.704 18.348C42.752 18.348 42.178 17.83 42.01 17.116H40.106C40.274 18.782 41.534 20 43.732 20C46.056 20 47.26 18.516 47.26 16.43C47.26 14.848 46.448 13.056 44.068 13.056C43.214 13.056 42.444 13.42 42.066 13.882V11.488H46.602V9.766H40.274ZM48.6398 19.86H55.5558V18.236H51.4258C53.0498 16.864 55.3318 15.016 55.3318 12.65C55.3318 10.872 54.2258 9.57 52.0278 9.57C50.1938 9.57 48.6958 10.648 48.6258 12.986H50.5298C50.5438 11.908 51.0618 11.236 51.9998 11.236C52.9658 11.236 53.3718 11.852 53.3718 12.762C53.3718 14.638 50.9498 16.444 48.6398 18.404V19.86Z" fill="white"/>
<defs>
<filter id="filter0_d_1_502" x="27" y="0" width="42" height="42" filterUnits="userSpaceOnUse" color-interpolation-filters="sRGB">
<feFlood flood-opacity="0" result="BackgroundImageFix"/>
<feColorMatrix in="SourceAlpha" type="matrix" values="0 0 0 0 0 0 0 0 0 0 0 0 0 0 0 0 0 0 127 0" result="hardAlpha"/>
<feOffset dy="6"/>
<feGaussianBlur stdDeviation="4"/>
<feColorMatrix type="matrix" values="0 0 0 0 0.529412 0 0 0 0 0.262745 0 0 0 0 0.87451 0 0 0 0.37 0"/>
<feBlend mode="normal" in2="BackgroundImageFix" result="effect1_dropShadow_1_502"/>
<feBlend mode="normal" in="SourceGraphic" in2="effect1_dropShadow_1_502" result="shape"/>
</filter>
</defs>
</svg>
