<svg width="28" height="28" viewBox="0 0 28 28" fill="none" xmlns="http://www.w3.org/2000/svg">
<g clip-path="url(#clip0_1_522)">
<path d="M15.7545 24.4961C8.99147 24.4961 3.50891 19.0136 3.50891 12.2506C3.50891 5.4875 8.99141 0.00506592 15.7545 0.00506592C22.5175 0.00506592 28 5.48756 28 12.2506C28 19.0137 22.5175 24.4961 15.7545 24.4961ZM15.7545 3.50381C10.9237 3.50381 7.00766 7.41987 7.00766 12.2506C7.00766 17.0814 10.9237 20.9974 15.7545 20.9974C20.5852 20.9974 24.5013 17.0814 24.5013 12.2506C24.5013 7.41987 20.5852 3.50381 15.7545 3.50381Z" fill="#BFBFBF"/>
<path d="M1.75951 27.9948C1.29451 27.9976 0.847591 27.815 0.517469 27.4875C-0.168521 26.8071 -0.173043 25.6995 0.50734 25.0136C0.510716 25.0102 0.514093 25.0068 0.517469 25.0034L7.09506 18.4258C7.80517 17.7398 8.93693 17.7594 9.62292 18.4696C10.3089 19.1797 10.2893 20.3114 9.57921 20.9974L3.00155 27.4875C2.67143 27.815 2.22452 27.9976 1.75951 27.9948Z" fill="#BFBFBF"/>
</g>
<defs>
<clipPath id="clip0_1_522">
<rect width="28" height="28" fill="white"/>
</clipPath>
</defs>
</svg>
