<svg width="28" height="28" viewBox="0 0 28 28" fill="none" xmlns="http://www.w3.org/2000/svg">
<g clip-path="url(#clip0_1_491)">
<path d="M15.7544 24.4961C8.9914 24.4961 3.50885 19.0136 3.50885 12.2506C3.50885 5.4875 8.99134 0.00506592 15.7544 0.00506592C22.5175 0.00506592 28 5.48756 28 12.2506C28 19.0137 22.5174 24.4961 15.7544 24.4961ZM15.7544 3.50381C10.9237 3.50381 7.0076 7.41987 7.0076 12.2506C7.0076 17.0814 10.9237 20.9974 15.7544 20.9974C20.5852 20.9974 24.5012 17.0814 24.5012 12.2506C24.5012 7.41987 20.5851 3.50381 15.7544 3.50381Z" fill="#BFBFBF"/>
<path d="M1.75948 27.9948C1.29448 27.9976 0.847561 27.815 0.517439 27.4875C-0.168551 26.8071 -0.173073 25.6995 0.507309 25.0136C0.510686 25.0102 0.514062 25.0068 0.517439 25.0034L7.09503 18.4258C7.80514 17.7398 8.9369 17.7594 9.62289 18.4696C10.3089 19.1797 10.2893 20.3114 9.57918 20.9974L3.00152 27.4875C2.6714 27.815 2.22449 27.9976 1.75948 27.9948Z" fill="#BFBFBF"/>
</g>
<defs>
<clipPath id="clip0_1_491">
<rect width="28" height="28" fill="white"/>
</clipPath>
</defs>
</svg>
