<svg width="24" height="24" viewBox="0 0 24 24" fill="none" xmlns="http://www.w3.org/2000/svg">
<g clip-path="url(#clip0_8_203)">
<path d="M23.5607 10.9394L18.2461 5.62482C17.9532 5.3319 17.5693 5.18546 17.1854 5.18546C16.8015 5.18546 16.4176 5.3319 16.1247 5.62482C15.539 6.21062 15.539 7.16035 16.1247 7.74615L18.8787 10.5001L1.5 10.5001C0.671578 10.5001 0 11.1716 0 12.0001C0 12.8285 0.671578 13.5001 1.5 13.5001L18.8787 13.5001L16.1247 16.254C15.539 16.8398 15.539 17.7895 16.1247 18.3753C16.7106 18.9611 17.6602 18.9611 18.2461 18.3753L23.5607 13.0607C24.1464 12.4749 24.1464 11.5252 23.5607 10.9394Z" fill="#40189D"/>
</g>
<defs>
<clipPath id="clip0_8_203">
<rect width="24" height="24" fill="white" transform="matrix(1 0 0 -1 0 24)"/>
</clipPath>
</defs>
</svg>
